<?xml version="1.0" encoding="utf-8"?>
<!-- Generator: Adobe Illustrator 23.0.1, SVG Export Plug-In . SVG Version: 6.00 Build 0)  -->
<svg version="1.1" id="Ebene_1" xmlns="http://www.w3.org/2000/svg" xmlns:xlink="http://www.w3.org/1999/xlink" x="0px" y="0px"
	 viewBox="0 0 412.7 236" style="enable-background:new 0 0 412.7 236;" xml:space="preserve">
<style type="text/css">
	.st0{fill:none;stroke:#666666;stroke-width:1.1;stroke-linecap:round;stroke-miterlimit:10;}
	.st1{fill:none;stroke:#666666;stroke-width:0.8;stroke-linecap:round;stroke-miterlimit:10;}
	.st2{fill:none;stroke:#00E4EA;stroke-width:0.8;stroke-linecap:round;stroke-linejoin:round;}
	.st3{fill:none;stroke:#00E4EA;stroke-linecap:round;stroke-linejoin:round;}
	.st4{fill:none;stroke:#666666;stroke-linecap:round;stroke-miterlimit:10;}
	.st5{fill:none;stroke:#00E4EA;stroke-width:1.09;stroke-linecap:round;stroke-linejoin:round;}
</style>
<title>VektorgrafikAufbau</title>
<path class="st0" d="M243.3,0.6h168.1c0.4,0,0.8,0.4,0.8,0.8v118.4c0,0.4-0.4,0.8-0.8,0.8H243.3c-0.4,0-0.8-0.4-0.8-0.8V1.3
	C242.5,0.9,242.8,0.6,243.3,0.6z"/>
<path class="st1" d="M370,71.7c-4,6.7,6.9,15.9,3.1,21.8c-4.7,7.3-23.2-3.6-37.5,7c-4.6,3.4-6.7,7.6-10.2,6.9
	c-4.6-0.8-3.5-8.4-9.2-14.6c-9-9.7-22.1-2.3-29.8-11.6c-5.4-6.5-4-16.1-3.5-19.2c1.4-9.1,6.5-10.8,9.7-21
	c4.5-14.2-2.1-20.8,2.5-24.8c7.2-6.4,22.3,11.8,42.1,5.6c3.1-1,7.1-2.8,13-4.3c1.1-0.3,4.1-1,7.8-1.7c12.8-2.2,21-3.6,24.4,0
	c4.8,5-5.2,13.9-1.9,27.2c3,12,13.9,16.2,11.9,20.9C390,69.7,374.4,64.6,370,71.7z"/>
<path class="st2" d="M303.1,24.8c5.9-5.2,18.1,8.8,34.1,4.6c2.5-0.6,5.6-2,10.3-3c0.9-0.2,3.3-0.7,6.1-1.1
	c9.9-1.5,16.4-2.4,19.2,0.6c1.8,1.9,1,4.6,0,8s-2.3,8-0.9,13.5c2.3,9.3,10.6,12.8,9,16.7c-1.8,4.4-13.5,0.7-16.8,6.3
	c-3.1,5.2,5.1,12.2,2.1,16.8c-2.4,3.6-8.4,1.9-15.7,2.1c-5.4,0.1-10.3,0.8-15.6,4.6c-3.6,2.6-5.2,5.8-8,5.3c-3.6-0.6-3-6.2-7.4-10.8
	c-7-7.2-17.2-1.7-23.2-8.8c-1.8-2.3-2.9-5-3.1-7.9c-0.3-3-0.3-6,0.2-9c0.9-6.2,3.8-8.3,6.1-13.6c0.5-1.2,1-2.5,1.4-3.7
	C304.4,33.5,299.5,28,303.1,24.8z"/>
<path class="st1" d="M311.2,33.4c4.6-4,13.9,5.8,26.1,3.6c1.9-0.3,4.2-1.3,7.6-1.7c0.7-0.1,2.5-0.3,4.5-0.6
	c7.1-0.8,11.7-1.1,13.9,1.2c1.4,1.4,1,3.3,0.4,5.8c-0.9,3.2-1,6.6-0.3,9.8c1.6,6.5,7.2,9.4,6.1,12.5c-1.2,3.1-9.1,0.9-11.4,4.8
	c-2.1,3.6,3.2,8.5,1,11.7s-6.7,1.5-12.7,2c-4.5,0.2-8.8,1.7-12.4,4.3c-2.6,1.7-3.8,3.9-5.8,3.7c-2.6-0.3-2.4-4-5.6-7
	c-5.1-4.8-12.3-1-16.7-6c-1.5-1.7-2.1-4-2.5-6.8c-0.3-2.6-0.2-5.2,0.2-7.7c0.6-4.9,2.6-6.7,4.3-10.8c0.4-0.9,0.7-1.9,1-3
	C311.6,40.2,308.5,35.8,311.2,33.4z"/>
<path class="st1" d="M319.2,42c3.3-2.8,9.7,2.7,18.1,2.6c1.4,0,2.9-0.8,4.8-0.4c0.9,0.1,1.9,0.1,2.8,0c4.2-0.1,7.1,0.1,8.6,1.7
	c0.9,0.9,0.9,2.1,0.7,3.6c-0.3,2.1-0.1,4.2,0.4,6.2c1,3.8,3.9,6,3.1,8.3c-0.6,1.8-4.6,1.1-5.9,3.4c-1.2,2.1,1.4,4.8,0,6.7
	c-1.8,2.4-5,1.2-9.6,2c-3.8,0.7-5.3,1.5-9.3,3.9c-1.5,0.9-2.3,2.2-3.5,2.1c-1.6,0-1.8-1.8-3.8-3.2c-3.2-2.3-7.5-0.4-10.1-3.2
	c-1.2-1.3-1.5-3-1.8-5.7c-0.2-2.1-0.1-4.3,0.2-6.4c0.4-3.5,1.5-5,2.4-8c0.2-0.7,0.4-1.4,0.6-2.2C318.8,46.8,317.4,43.6,319.2,42z"/>
<path class="st1" d="M345,67.6c-1.6,1.7-3.3,0.8-6.6,2c-3,1.1-2.6,2.1-6.1,3.6c-2,0.8-5.1,2.2-6.8,0.7c-0.9-0.8-0.9-2.1-1.2-4.7
	c-0.1-1.7,0-3.4,0.2-5.2c0.2-2.1,0.3-3.4,0.6-5.2c0.8-5,1.1-7.5,2.1-8.3c2-1.6,5.5-0.2,10.2,1.6c3.8,1.5,6.2,2.5,7.8,5.1
	c1.2,2,1.6,4.4,1.3,6.7C346.4,65.4,345.8,66.6,345,67.6z"/>
<path class="st0" d="M103,48.8h168.4c0.4,0,0.8,0.4,0.8,0.8v118.3c0,0.4-0.4,0.8-0.8,0.8H103c-0.4,0-0.8-0.4-0.8-0.8V49.6
	C102.2,49.2,102.5,48.8,103,48.8z"/>
<path class="st3" d="M117,109.3c2,2.1,3,2.2,3.6,2.3c2.5,0.6,4.3-6.5,7.8-6.7c3.9-0.2,6.1,8.3,8.9,7.7c1.9-0.4,1.8-4.8,6.5-10.7
	c1.1-1.5,1.6-1.7,2-1.7c3.4,0.2,4.4,17.9,6.4,17.8c0.9,0,1.2-3.2,2.9-9.9c2-7.5,3.1-12,4.4-12c3.1-0.1,4.9,25.1,7.7,25.1
	s4.1-25.6,7-25.6c2.7,0,4.5,21.6,7.7,21.5c2.7,0,4.8-15.3,7-15c1.3,0.1,1.7,5,4.9,7.1c0.7,0.5,1.5,0.8,2.4,0.8
	c1.3-0.1,1.6-0.8,2.6-0.9c1.9-0.2,2.6,2.2,4,2.2c2.9,0.1,4.4-9.9,6.9-9.9c1.8,0,3.6,4.9,5.6,9.9c1,2.6,1.4,4.2,2.3,4.2
	c1.1,0,2.1-2.6,3.7-6.6c1.9-4.8,2.1-6.8,3.3-7s2.6,1.9,3.3,3c2.2,3.5,1.5,6.2,3.6,7.3c0.7,0.3,1.5,0.4,2.3,0.3
	c3.1-0.7,3.1-5.7,5.6-6.1c1.7-0.2,2.5,2.1,4.8,1.7c0.8-0.3,1.6-0.6,2.4-1.1c2.2-1.1,2.2-1.5,2.8-1.4c1.4,0,2.1,2,4.1,4.9
	c1.2,1.5,2.6,3,4.1,4.3"/>
<path class="st4" d="M257.3,141.9c-3.2-3.7-8-8.1-8.8-8.2c-2.1-0.2-4.9,5.4-6.7,8.9c-1.2,2.3-1.6,3.6-2.4,3.6
	c-1.9,0-2.6-7.5-4.5-7.5c-1.1,0-2.1,2.6-2.8,4.6c-1.9,5.4-1.6,9-2.2,9.1c-1.5,0.2-4.3-17.7-7.1-17.6c-2.4,0.1-2.7,12.6-5.4,12.9
	s-4.4-16.8-7.1-16.8c-3.6,0-5.3,24.5-9,24.6c-3,0-4.7-15.7-8.2-15.6c-2.6,0-4,11.2-5.8,11.1c-2.4-0.2-2.2-19.6-4.3-19.8
	c-1.8-0.1-3.7,13.1-5.4,12.9c-0.7-0.1-1.2-2.5-1.9-5.7s-0.7-5.3-1.1-5.4c-0.7,0-1,6.9-2.6,7.1s-2.7-6.7-4.7-6.7
	c-3.1,0-4.8,16.7-7.7,16.6c-2.1,0-3.5-9.1-5.6-8.9c-1,0.1-1.2,2.2-2.6,2.4c-1.6,0.2-2.4-2.3-3.9-2.2s-2.1,3.2-3.2,3.2
	c-1.4-0.1-1.5-5.5-3-5.8c-1.9-0.3-3.4,7.5-5.8,7.5"/>
<path class="st4" d="M117,78.9c4.6-7.2,5.4-8.8,6.8-8.5c1,0.2,1.2,1.1,4.6,4.9c2.2,2.6,2.7,2.8,3.1,2.8c1.9-0.2,1-5.9,5.1-7.7
	c0.8-0.5,1.7-0.6,2.6-0.4c1.6,0.6,1.3,2.9,2.9,3.4c1.1,0.4,1.8-0.6,2.9-0.4c2.5,0.5,1.3,6.1,3.9,6.9c2.2,0.8,7.6-2.1,9.6-5.5
	c0.4-0.8,0.9-1.7,1.9-2c1.7-0.4,2.9,1.6,4.8,1.4c2.2-0.2,2.4-3.2,3.9-3.4c2.8-0.2,4.8,11.6,8.2,11.9c4,0.3,6.4-20,9.9-20
	c4.2,0,5.9,24.5,9.9,24.6S203.5,64,207.9,64c4.2,0,6.5,19.9,10.6,19.8c3.7,0,6.4-15,9.9-14.8c2.1,0.1,3.3,7.6,7,7.7
	c1.1,0,2.1-0.7,3.4-0.2c1.6,0.6,1.6,2.1,2.4,2.2c1.6,0.1,2.4-6.6,4.3-6.7s2.6,5.7,6,6.1c2.3,0.3,3.3-2.2,5.6-2"/>
<path class="st0" d="M1.2,115.6h128.6c0.4,0,0.7,0.3,0.7,0.7v118.5c0,0.4-0.3,0.7-0.7,0.7H1.2c-0.4,0-0.7-0.3-0.7-0.7V116.3
	C0.6,115.9,0.9,115.6,1.2,115.6z"/>
<path class="st0" d="M46.5,193.6c0,0,10.5-12.3-0.5-27.3c-8.8-12.1-0.5-25,2.2-27.8S81,115,92,153.2l5,11.4c0.3,0.8,0,1.7-0.8,2
	c-0.2,0.1-0.4,0.1-0.6,0.1l-5.2,0.1c0,0,1.6,16.5-4.9,18.6c-0.6,0.2-13.6-1.1-13.6-1.1c-3.4-1.1-5.4-4.7-4.5-8.2"/>
<line class="st4" x1="71.2" y1="197" x2="73.4" y2="185"/>
<path class="st0" d="M33.9,220.6h56c0-14.5-16-26.3-35.8-26.3"/>
<path class="st5" d="M89,140.7c-0.2-0.3-0.6-0.3-0.8-0.1c0,0,0,0,0,0c-1.1,0.9-4.4,3.4-12.3,5.8c-1.2,0.4-6.3,1.8-7.7,2.2
	c-11.1,2.8-9.8,2-8.9,7s3.3,11.4,5.3,4.3c2-7.2,11.3-10.1,11.3-10.1s10.7-4.4,13.4-6.2c0.4-0.3,0.6-0.8,0.4-1.2
	C89.6,141.7,89.3,141.2,89,140.7z"/>
<path class="st4" d="M78.3,159.4c0,0,5.7,3.2,8.2-0.8"/>
</svg>
