<svg xmlns="http://www.w3.org/2000/svg" viewBox="0 0 412.72 235.97"><defs><style>.cls-1,.cls-2,.cls-3,.cls-4,.cls-5,.cls-6{fill:none;stroke-linecap:round;}.cls-1,.cls-2,.cls-5{stroke:#666;stroke-miterlimit:10;}.cls-1{stroke-width:1.1px;}.cls-2,.cls-3{stroke-width:0.8px;}.cls-3,.cls-4,.cls-6{stroke:#00e4ea;stroke-linejoin:round;}.cls-6{stroke-width:1.09px;}</style></defs><title>AufbauVektorgrafik</title><g id="Ebene_2" data-name="Ebene 2"><g id="Ebene_1-2" data-name="Ebene 1"><rect class="cls-1" x="242.49" y="0.55" width="169.68" height="120" rx="0.79"/><path class="cls-2" d="M370.05,71.7c-4.05,6.69,6.89,15.87,3.1,21.79-4.67,7.3-23.25-3.57-37.5,7-4.63,3.43-6.69,7.56-10.19,6.92-4.59-.84-3.55-8.43-9.25-14.61-9-9.74-22.09-2.33-29.79-11.6-5.39-6.49-4-16.13-3.5-19.23,1.44-9.15,6.48-10.76,9.72-21,4.5-14.16-2.11-20.78,2.45-24.78,7.24-6.35,22.32,11.76,42.12,5.62,3.11-1,7.06-2.76,13-4.34,1.06-.28,4.15-1,7.76-1.68,12.76-2.19,21-3.61,24.41,0,4.75,5-5.25,13.9-1.91,27.24,3,12,13.89,16.17,11.89,20.93C390,69.65,374.37,64.58,370.05,71.7Z"/><path class="cls-3" d="M303.13,24.83c5.93-5.16,18.1,8.77,34.12,4.63,2.53-.65,5.64-2.05,10.27-3,.9-.19,3.32-.7,6.12-1.12,9.91-1.49,16.36-2.38,19.16.58,1.83,1.94,1.05,4.58,0,8s-2.3,8-.93,13.46c2.33,9.26,10.57,12.77,9,16.71-1.77,4.38-13.53.74-16.84,6.26-3.1,5.15,5.07,12.21,2.07,16.75-2.41,3.64-8.44,1.93-15.68,2.07-5.35.1-10.34.82-15.63,4.58-3.61,2.56-5.22,5.75-8,5.32-3.6-.57-3-6.22-7.42-10.8-7.05-7.25-17.19-1.7-23.23-8.81a14.85,14.85,0,0,1-3.1-7.88,32.3,32.3,0,0,1,.24-9c.89-6.24,3.75-8.34,6.11-13.63a35.66,35.66,0,0,0,1.38-3.74C304.35,33.51,299.49,28,303.13,24.83Z"/><path class="cls-2" d="M311.16,33.44c4.63-4,13.9,5.76,26.14,3.63,1.94-.33,4.23-1.3,7.56-1.74.73-.1,2.48-.35,4.48-.57,7.06-.78,11.73-1.14,13.9,1.16,1.35,1.43,1,3.35.37,5.78a19.2,19.2,0,0,0-.26,9.84c1.65,6.55,7.24,9.36,6.06,12.49s-9.09.91-11.39,4.83c-2.13,3.62,3.25,8.54,1.05,11.71s-6.73,1.53-12.66,2A23.23,23.23,0,0,0,334,86.87c-2.57,1.71-3.76,3.95-5.75,3.72-2.6-.3-2.38-4-5.58-7-5.12-4.76-12.31-1-16.67-6-1.53-1.74-2.08-4-2.45-6.81a29.28,29.28,0,0,1,.23-7.71c.62-4.87,2.62-6.68,4.27-10.83.35-.89.68-1.87,1-3C311.56,40.16,308.45,35.79,311.16,33.44Z"/><path class="cls-2" d="M319.2,42.05c3.32-2.81,9.68,2.74,18.15,2.63,1.35,0,2.9-.85,4.84-.44a19.23,19.23,0,0,0,2.84,0c4.22-.06,7.11.1,8.64,1.73.87.92.91,2.12.72,3.6a16.11,16.11,0,0,0,.41,6.22c1,3.84,3.9,6,3.14,8.27-.6,1.85-4.64,1.09-5.93,3.4-1.17,2.09,1.38,4.85,0,6.67-1.82,2.41-5,1.15-9.64,2-3.79.72-5.27,1.52-9.27,3.93-1.51.9-2.31,2.15-3.53,2.13-1.61,0-1.81-1.81-3.75-3.2-3.2-2.27-7.46-.37-10.11-3.2-1.19-1.28-1.49-3-1.81-5.74a28.83,28.83,0,0,1,.22-6.43c.39-3.5,1.49-5,2.44-8,.22-.68.41-1.4.6-2.15C318.79,46.82,317.41,43.56,319.2,42.05Z"/><path class="cls-2" d="M345,67.64c-1.63,1.72-3.3.83-6.62,2-3,1.07-2.59,2.13-6.09,3.6-2,.83-5.15,2.15-6.78.73-.88-.77-.91-2.07-1.16-4.66a29.56,29.56,0,0,1,.21-5.15c.18-2.13.32-3.38.6-5.22.76-5,1.14-7.53,2.08-8.29,2-1.62,5.48-.25,10.17,1.63,3.78,1.51,6.18,2.45,7.77,5.11a10.28,10.28,0,0,1,1.31,6.66A6.53,6.53,0,0,1,345,67.64Z"/><rect class="cls-1" x="102.17" y="48.85" width="170" height="119.85" rx="0.79"/><path class="cls-4" d="M117,109.26c2,2.06,3,2.18,3.61,2.32,2.5.58,4.35-6.52,7.82-6.73,3.86-.24,6.15,8.27,8.9,7.68,1.91-.41,1.84-4.75,6.47-10.72,1.15-1.47,1.56-1.73,2-1.71,3.42.15,4.35,17.87,6.36,17.82.86,0,1.19-3.22,2.92-9.9,2-7.54,3.1-12,4.37-12,3.06-.07,4.85,25.12,7.69,25.09s4.05-25.58,7-25.61c2.73,0,4.5,21.56,7.68,21.51,2.67,0,4.76-15.28,7-15,1.27.13,1.68,5,4.9,7.13a4.11,4.11,0,0,0,2.39.8c1.27,0,1.62-.83,2.65-.93,1.87-.19,2.58,2.19,4,2.25,2.9.12,4.36-9.94,6.9-9.91,1.76,0,3.64,4.93,5.56,9.91,1,2.64,1.42,4.18,2.26,4.22,1.1,0,2.15-2.59,3.71-6.6,1.85-4.78,2.12-6.82,3.31-7s2.62,1.94,3.31,3c2.22,3.51,1.54,6.22,3.58,7.26a3.52,3.52,0,0,0,2.26.26c3.13-.7,3.14-5.73,5.56-6.07,1.69-.24,2.52,2.09,4.77,1.72a10.43,10.43,0,0,0,2.39-1.06c2.21-1.13,2.22-1.46,2.78-1.45,1.38,0,2.06,2,4.11,4.88a36.42,36.42,0,0,0,4.06,4.27"/><path class="cls-5" d="M257.34,141.88c-3.22-3.74-8-8.07-8.82-8.16-2.06-.23-4.91,5.35-6.74,8.91-1.17,2.29-1.63,3.57-2.44,3.57-1.93,0-2.55-7.49-4.49-7.53-1.15,0-2.09,2.57-2.81,4.55-1.94,5.36-1.58,9-2.25,9.11-1.48.25-4.26-17.72-7.11-17.62-2.38.08-2.73,12.6-5.43,12.87s-4.37-16.83-7.12-16.83c-3.56,0-5.34,24.53-9,24.55-3,0-4.74-15.69-8.23-15.64-2.64,0-4,11.25-5.81,11.09-2.4-.21-2.18-19.65-4.31-19.8-1.75-.13-3.67,13.07-5.43,12.87-.73-.09-1.21-2.46-1.87-5.74s-.73-5.33-1.12-5.35c-.73,0-1,6.92-2.62,7.13s-2.71-6.72-4.69-6.73c-3.06,0-4.81,16.7-7.67,16.63-2.1,0-3.47-9.12-5.62-8.91-1,.1-1.21,2.2-2.62,2.37-1.59.21-2.38-2.34-3.93-2.17s-2.1,3.24-3.19,3.17c-1.43-.11-1.49-5.47-3-5.75-1.86-.34-3.4,7.48-5.81,7.53"/><path class="cls-5" d="M117,78.88c4.62-7.25,5.36-8.79,6.75-8.51,1,.19,1.21,1.1,4.58,4.95,2.25,2.58,2.7,2.82,3.13,2.77,1.91-.21,1-5.87,5.07-7.72a3.82,3.82,0,0,1,2.65-.4c1.64.56,1.27,2.86,2.89,3.37,1.14.36,1.8-.62,2.9-.4,2.5.5,1.31,6.06,3.85,6.93,2.25.77,7.56-2.06,9.65-5.54.45-.76.87-1.73,1.93-2,1.71-.4,2.95,1.6,4.82,1.38,2.19-.25,2.44-3.24,3.86-3.36,2.84-.24,4.84,11.64,8.19,11.88,4,.29,6.45-20,9.89-20,4.2,0,5.87,24.49,9.88,24.55S203.46,64,207.89,64c4.2,0,6.5,19.87,10.61,19.8,3.7,0,6.39-15,9.89-14.85,2.1.11,3.31,7.61,7,7.73,1.14,0,2.08-.66,3.38-.2,1.6.57,1.64,2.14,2.41,2.18,1.57.06,2.36-6.61,4.34-6.74s2.63,5.72,6,6.14c2.28.28,3.32-2.18,5.55-2"/><rect class="cls-1" x="0.55" y="115.57" width="130" height="119.85" rx="0.69"/><path class="cls-1" d="M46.46,193.57s10.47-12.32-.5-27.33c-8.82-12.05-.5-25,2.25-27.75S81,115,92,153.24l5,11.42a1.55,1.55,0,0,1-.78,2.05,1.58,1.58,0,0,1-.57.13l-5.22.15s1.62,16.5-4.88,18.61c-.64.21-13.62-1.11-13.62-1.11a6.89,6.89,0,0,1-4.5-8.25"/><line class="cls-5" x1="71.21" y1="196.99" x2="73.4" y2="184.99"/><path class="cls-1" d="M33.93,220.58h56c0-14.54-16-26.33-35.83-26.33"/><path class="cls-6" d="M89,140.69a.59.59,0,0,0-.82-.13l0,0c-1.1.95-4.45,3.35-12.26,5.83-1.16.37-6.33,1.83-7.67,2.16-11.09,2.76-9.79,2-8.89,7s3.34,11.44,5.35,4.26S76,149.75,76,149.75s10.72-4.4,13.45-6.23a1,1,0,0,0,.38-1.25A10.33,10.33,0,0,0,89,140.69Z"/><path class="cls-5" d="M78.29,159.39s5.69,3.25,8.22-.75"/></g></g></svg>